<svg width="783" height="667" viewBox="0 0 783 667" fill="none" xmlns="http://www.w3.org/2000/svg">
<path d="M661.136 351.201C661.136 388.69 661.136 426.179 661.136 463.669C661.136 465.143 663.558 465.248 663.558 463.669C663.558 426.179 663.558 388.69 663.558 351.201C663.558 349.621 661.136 349.621 661.136 351.201Z" fill="#E8E8E8"/>
<path d="M663.031 353.201C726.742 352.464 790.348 351.622 854.059 350.885C855.533 350.885 855.638 348.463 854.059 348.463C790.348 349.2 726.742 350.042 663.031 350.779C661.557 350.779 661.557 353.201 663.031 353.201Z" fill="#E8E8E8"/>
<path d="M662.715 465.038C678.406 465.038 694.097 465.038 709.682 465.038C711.157 465.038 711.262 462.616 709.682 462.616C693.992 462.616 678.301 462.616 662.715 462.616C661.241 462.721 661.241 465.038 662.715 465.038Z" fill="#E8E8E8"/>
<path d="M709.788 414.174C711.473 431.129 712.736 448.083 713.263 465.143C713.684 479.886 713.79 494.418 715.264 509.056C716.106 517.691 716.527 526.327 716.527 534.962C716.527 539.806 717.159 544.755 718.212 549.494C719.476 554.654 721.161 561.604 725.689 564.974C729.796 568.134 735.377 568.028 740.222 566.554C741.696 566.133 741.064 563.816 739.59 564.237C731.586 566.659 725.689 563.711 722.741 556.129C720.424 550.126 719.055 543.386 718.844 536.857C718.739 531.171 718.95 525.484 718.634 519.798C718.002 511.478 716.949 503.264 716.317 494.945C715.474 483.045 715.896 471.04 715.474 459.035C714.843 443.976 713.684 429.023 712.21 413.964C711.999 412.595 709.683 412.595 709.788 414.174Z" fill="#E8E8E8"/>
<path d="M711.894 417.755C712.42 413.016 713.895 409.225 718.949 407.645C722.425 406.592 726.11 407.013 729.691 407.329C731.165 407.435 731.165 405.118 729.691 404.907C724.741 404.381 719.265 403.959 714.842 406.803C710.946 409.33 709.998 413.226 709.577 417.544C709.366 419.334 711.683 419.334 711.894 417.755Z" fill="#E8E8E8"/>
<path d="M748.33 405.644C742.854 403.328 733.482 399.958 728.954 405.96C726.11 409.751 726.637 416.07 726.532 420.598C726.216 434.709 727.269 448.82 728.322 462.826C730.533 491.575 734.43 520.113 736.325 548.862C736.536 552.969 736.009 557.708 736.957 561.71C739.379 570.871 750.331 567.607 756.544 564.974C757.913 564.448 757.281 562.131 755.912 562.658C752.542 564.027 746.329 566.975 742.644 565.08C738.853 563.079 738.958 559.498 738.958 555.918C738.958 552.548 738.747 549.178 738.431 545.808C737.589 534.856 736.43 523.904 735.377 512.952C732.745 486.31 729.691 459.667 728.954 432.919C728.848 427.338 728.743 421.862 729.059 416.28C729.27 413.121 729.164 409.435 731.481 407.013C735.588 402.801 743.065 405.96 747.698 407.856C749.067 408.488 749.699 406.276 748.33 405.644Z" fill="#E8E8E8"/>
<path d="M761.494 563.5C755.281 564.764 756.123 551.284 755.702 548.23C755.07 543.808 754.333 539.385 753.596 535.067C752.227 526.853 752.227 518.639 751.805 510.32C751.384 500.21 750.015 490.101 749.805 479.991C749.489 468.513 750.015 457.14 748.962 445.766C748.33 437.658 747.804 429.444 747.382 421.23C746.961 413.542 749.805 399.958 760.441 404.486C761.81 405.118 763.073 403.012 761.599 402.485C750.542 397.746 745.487 408.382 744.96 417.965C744.539 425.442 745.803 433.34 746.224 440.922C746.54 446.082 747.172 451.242 747.172 456.402C747.277 468.829 746.961 481.36 748.014 493.787C748.857 504.528 748.962 515.375 749.91 526.011C750.752 535.804 753.385 545.387 753.911 555.286C754.227 560.235 755.386 567.186 762.02 565.922C763.6 565.396 762.968 563.184 761.494 563.5Z" fill="#E8E8E8"/>
<path d="M760.862 404.697C767.496 401.959 770.339 409.436 770.655 414.596C770.761 416.175 770.971 418.703 769.392 419.756C768.549 420.282 766.864 419.861 765.916 420.282C761.599 421.967 762.863 426.917 762.757 430.813C762.441 447.557 762.336 464.301 762.336 481.044C762.441 497.788 762.652 514.532 763.073 531.276C763.179 535.488 761.915 541.912 765.495 545.177C768.444 547.809 771.392 549.178 771.708 553.706C772.024 559.604 767.075 563.289 761.599 563.184C760.125 563.184 760.125 565.501 761.599 565.606C767.18 565.712 772.656 562.342 773.92 556.655C774.446 554.233 774.025 551.706 772.972 549.494C771.708 546.756 769.813 546.124 767.812 544.123C764.232 540.543 765.39 532.013 765.285 527.38C765.179 521.798 765.074 516.217 764.969 510.636C764.758 500.21 764.653 489.68 764.653 479.254C764.653 468.829 764.653 458.298 764.758 447.873C764.863 442.291 764.863 436.71 764.969 431.129C764.969 429.339 764.548 426.495 765.074 424.81C766.127 421.756 767.707 423.125 769.813 422.283C774.446 420.493 773.288 413.753 772.235 409.857C770.761 404.591 765.706 400.379 760.125 402.696C758.861 403.012 759.493 405.329 760.862 404.697Z" fill="#E8E8E8"/>
<path d="M763.6 465.669C793.928 465.669 824.362 465.669 854.69 465.669C856.165 465.669 856.27 463.247 854.69 463.247C824.362 463.247 793.928 463.247 763.6 463.247C762.02 463.353 762.02 465.669 763.6 465.669Z" fill="#E8E8E8"/>
<path d="M781.818 359.52C781.818 367.418 781.818 375.211 781.818 383.109C781.818 384.583 784.24 384.688 784.24 383.109C784.24 375.211 784.24 367.418 784.24 359.52C784.135 357.94 781.818 357.94 781.818 359.52Z" fill="#E8E8E8"/>
<path d="M783.397 385.425C800.562 385.425 817.728 385.425 834.893 385.425C836.367 385.425 836.472 383.003 834.893 383.003C817.728 383.003 800.562 383.003 783.397 383.003C781.818 383.109 781.818 385.425 783.397 385.425Z" fill="#E8E8E8"/>
<path d="M782.555 360.678C800.141 360.678 817.728 360.678 835.314 360.678C836.788 360.678 836.894 358.256 835.314 358.256C817.728 358.256 800.141 358.256 782.555 358.256C780.975 358.256 780.975 360.678 782.555 360.678Z" fill="#E8E8E8"/>
<path d="M669.982 361.099C669.982 387.11 669.982 413.226 669.982 439.237C669.982 440.712 672.404 440.817 672.404 439.237C672.404 413.226 672.404 387.11 672.404 361.099C672.404 359.625 669.982 359.625 669.982 361.099Z" fill="#E8E8E8"/>
<path d="M671.245 362.258C691.359 362.258 711.473 362.258 731.586 362.258C733.061 362.258 733.166 359.836 731.586 359.836C711.473 359.836 691.359 359.836 671.245 359.836C669.666 359.941 669.666 362.258 671.245 362.258Z" fill="#E8E8E8"/>
<path d="M681.565 370.366C681.46 370.051 681.671 369.524 681.987 369.313C682.408 368.997 682.934 369.208 683.25 369.629C683.882 370.577 682.513 371.104 681.776 370.577C680.512 369.735 679.354 371.736 680.618 372.578C681.881 373.42 683.671 373.21 684.83 372.262C686.094 371.104 686.094 369.313 685.146 367.944C684.093 366.681 682.303 366.26 680.934 367.207C679.565 368.155 679.038 369.945 679.775 371.42C679.986 372.051 680.934 372.157 681.355 371.841C681.776 371.63 681.881 370.998 681.565 370.366Z" fill="#E8E8E8"/>
<path d="M566.886 258.846C566.886 264.006 566.886 269.166 566.886 274.326C566.886 275.801 569.308 275.906 569.308 274.326C569.308 269.166 569.308 264.006 569.308 258.846C569.202 257.372 566.886 257.372 566.886 258.846Z" fill="#E8E8E8"/>
<path d="M568.887 259.267C654.817 259.267 740.748 259.267 826.679 259.267C828.153 259.267 828.258 256.845 826.679 256.845C740.748 256.845 654.817 256.845 568.887 256.845C567.412 256.845 567.412 259.267 568.887 259.267Z" fill="#E8E8E8"/>
<path d="M570.571 276.327C655.449 276.327 740.222 276.327 825.099 276.327C826.574 276.327 826.679 273.905 825.099 273.905C740.222 273.905 655.449 273.905 570.571 273.905C568.992 273.905 568.992 276.327 570.571 276.327Z" fill="#E8E8E8"/>
<path d="M570.782 161.332C570.782 165.86 570.782 170.493 570.782 175.022C570.782 176.496 573.204 176.601 573.204 175.022C573.204 170.493 573.204 165.86 573.204 161.332C573.099 159.857 570.782 159.857 570.782 161.332Z" fill="#E8E8E8"/>
<path d="M573.309 163.227C656.923 163.227 740.643 163.227 824.257 163.227C825.731 163.227 825.836 160.805 824.257 160.805C740.643 160.805 656.923 160.805 573.309 160.805C571.835 160.805 571.835 163.227 573.309 163.227Z" fill="#E8E8E8"/>
<path d="M572.678 178.286C655.66 178.286 738.642 178.286 821.519 178.286C822.993 178.286 823.098 175.864 821.519 175.864C738.537 175.864 655.555 175.864 572.678 175.864C571.098 175.864 571.098 178.286 572.678 178.286Z" fill="#E8E8E8"/>
<path d="M599.952 160.278C599.952 155.961 599.952 151.538 600.058 147.22C599.636 147.642 599.215 148.063 598.899 148.379C651.132 144.693 703.68 145.22 755.807 150.064C755.386 149.642 754.965 149.221 754.649 148.905C755.175 153.223 755.807 157.54 756.334 161.858C756.544 163.332 758.861 163.332 758.756 161.858C758.229 157.54 757.597 153.223 757.071 148.905C756.965 148.273 756.65 147.747 755.912 147.747C703.785 142.903 651.237 142.376 599.005 146.062C598.373 146.062 597.846 146.589 597.846 147.22C597.846 151.538 597.846 155.961 597.741 160.278C597.636 161.858 599.952 161.858 599.952 160.278Z" fill="#E8E8E8"/>
<path d="M647.762 144.483C648.499 142.482 648.078 140.902 648.394 139.007C649.341 134.162 653.448 133.846 657.661 133.636C663.874 133.425 670.087 133.215 676.3 133.004C689.464 132.583 702.522 132.162 715.685 131.74C728.322 131.319 741.064 130.687 753.701 130.582C760.23 130.477 766.864 130.687 773.393 131.74C778.343 132.583 779.607 135.531 780.133 140.165C780.554 143.114 780.765 146.062 780.976 149.116C781.397 148.695 781.818 148.274 782.134 147.958C772.867 148.063 763.705 147.536 754.543 146.589C753.069 146.378 753.069 148.8 754.543 149.011C763.705 149.958 772.867 150.485 782.134 150.38C782.766 150.38 783.398 149.853 783.292 149.221C782.976 144.588 783.398 136.795 780.765 132.688C778.238 128.897 771.709 129.213 767.707 128.792C751.174 127.317 734.219 128.897 717.686 129.424C701.047 129.95 684.514 130.582 667.876 131.108C663.769 131.214 659.556 131.424 655.449 131.53C653.343 131.635 650.816 131.319 648.815 132.267C644.392 134.478 646.709 140.27 645.34 143.956C645.024 145.22 647.341 145.851 647.762 144.483Z" fill="#E8E8E8"/>
<path d="M711.262 132.056C710.314 132.372 710.209 132.899 710.946 133.53C711.051 133.741 711.262 134.057 711.367 134.268C711.894 135.321 712.315 136.479 712.526 137.637C713.052 139.849 713.158 142.06 712.842 144.377C712.631 145.851 714.948 146.483 715.158 145.009C715.79 140.691 715.264 136.479 713.263 132.688C712.736 131.635 711.999 130.161 710.63 130.266C709.577 130.266 708.945 131.108 708.945 132.056C708.945 133.53 711.367 133.53 711.262 132.056Z" fill="#E8E8E8"/>
<path d="M732.218 129.845C735.377 135.11 735.904 141.113 733.692 146.905C733.166 148.379 735.483 148.905 736.009 147.536C738.431 141.218 737.799 134.478 734.324 128.686C733.482 127.317 731.481 128.581 732.218 129.845Z" fill="#E8E8E8"/>
<path d="M703.89 130.161C704.838 128.37 702.522 122.157 702.206 119.946C701.679 116.576 701.363 113.206 701.258 109.836C701.153 107.52 700.731 107.414 702.837 106.151C703.89 105.624 705.575 105.519 706.734 105.308C710.525 104.571 714.421 103.939 718.318 103.729C722.741 103.413 734.64 101.517 736.957 106.467C738.115 108.994 737.694 113.733 737.589 116.471C737.484 120.262 737.168 124.053 736.536 127.844C736.325 129.318 738.642 129.95 738.853 128.476C739.695 123.21 740.116 117.945 739.906 112.574C739.8 109.626 740.011 105.308 737.589 103.097C735.061 100.78 730.428 101.201 727.269 101.096C721.477 100.991 715.685 101.412 709.998 102.36C707.155 102.781 700.626 102.781 699.046 105.624C697.361 108.467 699.257 115.523 699.573 118.472C699.889 121.42 699.889 129.002 702.311 130.793C703.68 131.846 705.049 131.424 705.681 129.845C705.891 129.424 705.891 128.792 705.47 128.37C704.101 127.107 702.627 127.212 701.784 128.897C701.153 130.266 703.153 131.53 703.89 130.161Z" fill="#E8E8E8"/>
<path d="M706.734 102.781C705.786 98.8844 703.048 95.7252 701.574 91.9341C700.942 90.3545 700.415 88.8802 699.994 87.1953C699.889 86.6688 699.784 86.0369 699.678 85.5104C698.52 83.1936 699.257 81.614 701.679 80.8769C702.627 81.9299 704.101 80.5609 703.575 79.4026C700.521 73.5054 698.941 67.0816 699.362 60.3419C699.573 56.4456 699.362 56.5509 702.943 54.866C706.313 53.181 707.576 53.7076 710.209 56.4456C712.42 58.657 713.789 61.9216 714.842 64.7649C719.055 76.3487 720.74 89.0908 721.056 101.306C721.056 102.781 723.478 102.886 723.478 101.306C723.162 91.3023 721.793 81.4034 719.371 71.6098C717.581 64.7649 715.369 56.0244 708.84 52.128C704.101 49.39 699.046 50.8643 697.677 56.235C695.571 64.2383 697.993 73.4 701.679 80.5609C702.311 80.0344 702.943 79.6132 703.575 79.0866C699.784 74.9797 696.94 80.6662 697.256 84.1414C697.888 90.4598 701.469 100.464 707.155 104.044C707.471 104.255 707.998 104.255 708.313 104.044C708.419 103.939 708.629 103.834 708.735 103.729C709.156 103.413 709.367 102.991 709.261 102.36C709.261 102.254 709.156 102.044 709.156 101.938C708.629 100.675 706.418 101.306 706.734 102.781Z" fill="#E8E8E8"/>
<path d="M720.108 77.6123C719.265 74.3478 719.897 71.1886 720.634 67.924C721.371 64.8701 725.057 56.7615 729.27 62.0268C730.112 63.0799 731.481 61.9215 731.27 60.8684C735.272 59.9207 737.273 60.7631 737.062 63.5011C737.167 64.133 737.168 64.8701 737.168 65.6073C737.168 67.1869 737.062 68.7665 736.957 70.3461C736.641 74.2425 736.22 78.0335 735.588 81.8246C734.535 88.3536 732.85 94.7774 730.849 101.096C730.428 102.57 732.639 103.202 733.166 101.728C735.377 94.7774 737.168 87.7218 738.221 80.4556C739.063 74.769 740.432 68.0293 739.379 62.2374C738.852 59.1835 736.641 55.6031 732.955 55.919C730.007 56.1296 728.532 58.7623 728.954 61.5003C729.585 61.0791 730.323 60.7631 730.954 60.3419C728.322 56.8668 723.372 57.8145 720.845 60.9737C717.475 65.186 716.633 73.1894 717.791 78.1388C718.107 79.7184 720.424 79.0866 720.108 77.6123Z" fill="#E8E8E8"/>
<path d="M634.493 146.904C636.073 148.168 636.283 151.433 636.599 153.328C637.021 155.75 637.231 158.172 637.231 160.7C637.231 162.174 639.653 162.279 639.653 160.7C639.653 157.646 639.337 154.592 638.705 151.643C638.284 149.537 637.863 146.694 636.178 145.22C635.02 144.272 633.335 145.957 634.493 146.904Z" fill="#E8E8E8"/>
<path d="M662.4 145.43C664.506 150.38 665.138 155.645 664.19 160.91C663.874 162.385 666.191 163.017 666.507 161.542C667.56 155.856 666.928 150.169 664.716 144.798C664.19 143.429 661.873 144.061 662.4 145.43Z" fill="#E8E8E8"/>
<path d="M0 2.10701C0 84.1414 0 166.281 0 248.315C0 271.483 0 294.651 0 317.713C0 319.187 2.42209 319.292 2.42209 317.713C2.42209 235.678 2.42209 153.539 2.42209 71.5045C2.42209 48.3369 2.42209 25.1693 2.42209 2.10701C2.42209 0.5274 0 0.5274 0 2.10701Z" fill="#E8E8E8"/>
<path d="M2.73799 2.52827C81.0866 2.52827 159.435 2.52827 237.889 2.52827C260.32 2.52827 282.645 2.52827 305.075 2.52827C306.549 2.52827 306.655 0.106201 305.075 0.106201C226.727 0.106201 148.378 0.106201 69.924 0.106201C47.4936 0.106201 25.1684 0.106201 2.73799 0.106201C1.26369 0.211508 1.26369 2.52827 2.73799 2.52827Z" fill="#E8E8E8"/>
<path d="M303.811 2.84419C304.127 85.4051 304.233 167.966 304.022 250.527C303.917 273.8 303.917 296.967 303.811 320.24C303.811 321.715 306.128 321.715 306.234 320.24C306.549 237.785 306.655 155.329 306.444 72.8735C306.339 49.4953 306.339 26.2224 306.234 2.84419C306.234 1.26458 303.811 1.26458 303.811 2.84419Z" fill="#E8E8E8"/>
<path d="M2.00084 320.451C80.876 320.451 159.856 320.451 238.732 320.451C261.057 320.451 283.382 320.451 305.812 320.451C307.287 320.451 307.392 318.029 305.812 318.029C226.937 318.029 147.957 318.029 69.0816 318.029C46.7564 318.029 24.4313 318.029 2.00084 318.029C0.421229 318.029 0.421229 320.451 2.00084 320.451Z" fill="#E8E8E8"/>
<path d="M7.79272 13.9014C7.79272 88.6696 7.79272 163.332 7.79272 238.101C7.79272 259.478 7.79272 280.855 7.79272 302.338C7.79272 303.812 10.2148 303.918 10.2148 302.338C10.2148 227.57 10.2148 152.907 10.2148 78.1389C10.2148 56.7615 10.2148 35.3841 10.2148 13.9014C10.1095 12.3218 7.79272 12.3218 7.79272 13.9014Z" fill="#E8E8E8"/>
<path d="M10.4254 15.797C83.5086 15.797 156.592 15.797 229.78 15.797C250.421 15.797 271.061 15.797 291.701 15.797C293.175 15.797 293.281 13.3749 291.701 13.3749C218.618 13.3749 145.535 13.3749 72.3461 13.3749C51.7058 13.3749 31.0656 13.3749 10.4254 13.3749C8.84579 13.3749 8.84579 15.797 10.4254 15.797Z" fill="#E8E8E8"/>
<path d="M9.68828 305.602C80.1388 305.602 150.484 305.602 220.935 305.602C240.943 305.602 260.846 305.602 280.854 305.602C282.329 305.602 282.434 303.18 280.854 303.18C210.404 303.18 140.059 303.18 69.6081 303.18C49.5998 303.18 29.6967 303.18 9.68828 303.18C8.10867 303.18 8.10867 305.602 9.68828 305.602Z" fill="#E8E8E8"/>
<path d="M290.437 16.7447C290.437 90.9863 290.437 165.123 290.437 239.364C290.437 260.32 290.437 281.382 290.437 302.338C290.437 303.812 292.859 303.918 292.859 302.338C292.859 228.096 292.859 153.96 292.859 79.7184C292.859 58.7623 292.859 37.7009 292.859 16.7447C292.754 15.1651 290.437 15.1651 290.437 16.7447Z" fill="#E8E8E8"/>
<path d="M188.605 16.5341C145.219 70.8727 101.832 125.106 58.5509 179.444C57.6032 180.603 59.2881 182.288 60.2358 181.129C103.622 126.791 147.009 72.5576 190.29 18.219C191.238 16.9553 189.553 15.2704 188.605 16.5341Z" fill="#E8E8E8"/>
<path d="M239.363 19.588C183.445 86.5634 127.632 153.539 71.7143 220.514C55.8129 239.575 39.8062 258.741 23.9048 277.801C22.957 278.96 24.6419 280.645 25.5897 279.486C81.5078 212.511 137.321 145.535 193.239 78.56C209.14 59.4994 225.147 40.3335 241.048 21.2729C241.996 20.1145 240.311 18.4296 239.363 19.588Z" fill="#E8E8E8"/>
<path d="M286.436 121.841C260.635 156.382 235.151 191.134 209.983 226.201C209.14 227.465 211.141 228.623 211.983 227.359C237.047 192.292 262.531 157.54 288.437 123C289.384 121.841 287.278 120.683 286.436 121.841Z" fill="#E8E8E8"/>
<path d="M705.769 633.108C756.527 614.679 807.075 643.218 855.095 657.013C904.8 671.335 956.927 668.175 1007.26 658.382C1036.96 652.59 1066.13 644.692 1095.2 636.689C1097.2 636.162 1096.35 633.108 1094.35 633.635C1043.07 647.746 990.941 661.962 937.551 663.542C910.697 664.384 883.739 661.752 857.833 654.485C833.297 647.64 809.813 637.32 785.171 630.581C759.055 623.525 730.832 620.682 704.927 630.054C703.031 630.686 703.769 633.74 705.769 633.108Z" fill="#E8E8E8"/>
</svg>
